<svg xmlns="http://www.w3.org/2000/svg" viewBox="0 0 64 64" width="64" height="64">
  <rect width="64" height="64" rx="12" fill="#111111"/>
  
  <!-- Top-left finder -->
  <rect x="8" y="8" width="18" height="18" rx="2" fill="#10B981"/>
  <rect x="11" y="11" width="12" height="12" rx="1" fill="#111111"/>
  <rect x="14" y="14" width="6" height="6" rx="1" fill="#10B981"/>
  
  <!-- Top-right finder -->
  <rect x="38" y="8" width="18" height="18" rx="2" fill="#10B981"/>
  <rect x="41" y="11" width="12" height="12" rx="1" fill="#111111"/>
  <rect x="44" y="14" width="6" height="6" rx="1" fill="#10B981"/>
  
  <!-- Bottom-left finder -->
  <rect x="8" y="38" width="18" height="18" rx="2" fill="#10B981"/>
  <rect x="11" y="41" width="12" height="12" rx="1" fill="#111111"/>
  <rect x="14" y="44" width="6" height="6" rx="1" fill="#10B981"/>
  
  <!-- Data dots -->
  <rect x="30" y="10" width="4" height="4" rx="1" fill="#10B981" opacity="0.7"/>
  <rect x="30" y="18" width="4" height="4" rx="1" fill="#10B981" opacity="0.5"/>
  <rect x="10" y="30" width="4" height="4" rx="1" fill="#10B981" opacity="0.7"/>
  <rect x="18" y="30" width="4" height="4" rx="1" fill="#10B981" opacity="0.5"/>
  <rect x="30" y="30" width="4" height="4" rx="1" fill="#10B981"/>
  <rect x="38" y="30" width="4" height="4" rx="1" fill="#10B981" opacity="0.6"/>
  <rect x="46" y="30" width="4" height="4" rx="1" fill="#10B981" opacity="0.4"/>
  <rect x="30" y="38" width="4" height="4" rx="1" fill="#10B981" opacity="0.6"/>
  <rect x="38" y="38" width="4" height="4" rx="1" fill="#10B981" opacity="0.8"/>
  <rect x="46" y="38" width="4" height="4" rx="1" fill="#10B981" opacity="0.5"/>
  <rect x="38" y="46" width="4" height="4" rx="1" fill="#10B981" opacity="0.7"/>
  <rect x="46" y="46" width="4" height="4" rx="1" fill="#10B981"/>
  <rect x="50" y="50" width="4" height="4" rx="1" fill="#10B981" opacity="0.6"/>
</svg>